<?xml version="1.0" encoding="UTF-8"?>
<svg width="82px" height="17px" viewBox="0 0 82 17" version="1.1" xmlns="http://www.w3.org/2000/svg" xmlns:xlink="http://www.w3.org/1999/xlink">
    <title>未命名</title>
    <g id="页面-1" stroke="none" stroke-width="1" fill="none" fill-rule="evenodd">
        <path id="直线" d="M14.667445,1.33709154 C14.9160166,1.78565904 14.7832235,2.34247506 14.3762098,2.63406112 L14.2774645,2.69647199 L5.572,7.519 L13.7469435,7.5716163 L81.0063693,8.00002028 C81.5586428,8.00353795 82.0034974,8.45409575 81.9999797,9.0063693 C81.9967133,9.51919473 81.6079888,9.93939868 81.1102923,9.99399492 L80.9936307,9.99997972 L13.7342049,9.57157573 L5.561,9.519 L14.2025817,14.4530824 C14.6479464,14.7073478 14.8236093,15.2521602 14.6271927,15.7127068 L14.5752143,15.8173203 C14.3209489,16.262685 13.7761365,16.4383479 13.3155899,16.2419314 L13.2109764,16.1899529 L1.25421259,9.36365827 C0.614632091,8.99851222 0.584659194,8.1054079 1.15789551,7.68889335 L1.26531524,7.62054255 L13.3080646,0.947111038 C13.7911373,0.679418636 14.3997526,0.854018856 14.667445,1.33709154 Z" fill="#000000" fill-rule="nonzero"></path>
    </g>
</svg>