<?xml version="1.0" encoding="UTF-8"?>
<svg width="32px" height="32px" viewBox="0 0 32 32" version="1.1" xmlns="http://www.w3.org/2000/svg" xmlns:xlink="http://www.w3.org/1999/xlink">
    <title>直线</title>
    <g id="页面-1" stroke="none" stroke-width="1" fill="none" fill-rule="evenodd">
        <path id="直线" d="M31.8535534,0.146446609 C32.0271197,0.320012961 32.0464049,0.589437362 31.9114088,0.784305503 L31.8535534,0.853553391 L2.849,29.857 L9.85046641,27.8971976 C10.0868355,27.8310143 10.3311139,27.9462942 10.4347729,28.1594897 L10.4667634,28.2438647 C10.5329467,28.4802337 10.4176668,28.7245122 10.2044713,28.8281712 L10.1200963,28.8601617 L1.28126157,31.3350354 C0.932621948,31.4326545 0.609410689,31.1413189 0.649187992,30.7985887 L0.6649646,30.7187384 L3.13983833,21.8799037 C3.19774875,21.6730808 3.37753566,21.5332288 3.57969627,21.516318 L3.66741626,21.5167608 L3.75613531,21.5332366 C3.99250435,21.5994199 4.14140115,21.8247889 4.11927819,22.0608145 L4.10280235,22.1495336 L2.142,29.15 L31.1464466,0.146446609 C31.3417088,-0.0488155365 31.6582912,-0.0488155365 31.8535534,0.146446609 Z" fill="#979797" fill-rule="nonzero"></path>
    </g>
</svg>