<svg id="图层_1" data-name="图层 1" xmlns="http://www.w3.org/2000/svg" xmlns:xlink="http://www.w3.org/1999/xlink" viewBox="0 0 2920.95 841.89"><defs><style>.cls-1,.cls-10,.cls-11,.cls-12,.cls-13,.cls-14,.cls-15,.cls-16,.cls-17,.cls-18,.cls-19,.cls-2,.cls-20,.cls-21,.cls-22,.cls-23,.cls-24,.cls-25,.cls-26,.cls-27,.cls-28,.cls-29,.cls-3,.cls-30,.cls-31,.cls-32,.cls-33,.cls-4,.cls-5,.cls-6,.cls-7,.cls-8,.cls-9{fill:none;stroke-miterlimit:10;stroke-width:2px;}.cls-1{opacity:0;stroke:url(#新建渐变色板_4);}.cls-10,.cls-11,.cls-12,.cls-13,.cls-2,.cls-3,.cls-4,.cls-5,.cls-6,.cls-7,.cls-8,.cls-9{stroke:#878788;}.cls-2{opacity:0.8;}.cls-3{opacity:0.7;}.cls-4{opacity:0.6;}.cls-5{opacity:0.5;}.cls-6{opacity:0.4;}.cls-7{opacity:0.3;}.cls-8{opacity:0.2;}.cls-9{opacity:0.1;}.cls-10{opacity:0.05;}.cls-11{opacity:0.03;}.cls-12{opacity:0.02;}.cls-13{opacity:0.01;}.cls-14{stroke:url(#新建渐变色板_4-2);}.cls-15{stroke:url(#新建渐变色板_4-3);}.cls-16{stroke:url(#新建渐变色板_4-4);}.cls-17{stroke:url(#新建渐变色板_4-5);}.cls-18{stroke:url(#新建渐变色板_4-6);}.cls-19{stroke:url(#新建渐变色板_4-7);}.cls-20{stroke:url(#新建渐变色板_4-8);}.cls-21{stroke:url(#新建渐变色板_4-9);}.cls-22{stroke:url(#新建渐变色板_4-10);}.cls-23{stroke:url(#新建渐变色板_4-11);}.cls-24{stroke:url(#新建渐变色板_5);}.cls-25{stroke:url(#新建渐变色板_5-2);}.cls-26{stroke:url(#新建渐变色板_5-3);}.cls-27{stroke:url(#新建渐变色板_5-4);}.cls-28{stroke:url(#新建渐变色板_5-5);}.cls-29{stroke:url(#新建渐变色板_5-6);}.cls-30{stroke:url(#新建渐变色板_5-7);}.cls-31{stroke:url(#新建渐变色板_5-8);}.cls-32{stroke:url(#新建渐变色板_5-9);}.cls-33{stroke:url(#新建渐变色板_5-10);}</style><linearGradient id="新建渐变色板_4" x1="-3304.47" y1="653.19" x2="6375.92" y2="653.19" gradientUnits="userSpaceOnUse"><stop offset="0" stop-color="#fff" stop-opacity="0"/><stop offset="1" stop-color="#251e1c"/><stop offset="1" stop-color="#4b494a" stop-opacity="0.97"/></linearGradient><linearGradient id="新建渐变色板_4-2" x1="2026.1" y1="653.18" x2="5914.97" y2="653.18" xlink:href="#新建渐变色板_4"/><linearGradient id="新建渐变色板_4-3" x1="1975.16" y1="653.18" x2="5454.02" y2="653.18" xlink:href="#新建渐变色板_4"/><linearGradient id="新建渐变色板_4-4" x1="1924.23" y1="653.18" x2="4993.07" y2="653.18" xlink:href="#新建渐变色板_4"/><linearGradient id="新建渐变色板_4-5" x1="1873.29" y1="653.18" x2="4532.12" y2="653.18" xlink:href="#新建渐变色板_4"/><linearGradient id="新建渐变色板_4-6" x1="1822.34" y1="653.18" x2="4071.19" y2="653.18" xlink:href="#新建渐变色板_4"/><linearGradient id="新建渐变色板_4-7" x1="1771.38" y1="653.18" x2="3610.26" y2="653.18" xlink:href="#新建渐变色板_4"/><linearGradient id="新建渐变色板_4-8" x1="1720.4" y1="653.18" x2="3149.35" y2="653.18" xlink:href="#新建渐变色板_4"/><linearGradient id="新建渐变色板_4-9" x1="1669.39" y1="653.18" x2="2688.48" y2="653.18" xlink:href="#新建渐变色板_4"/><linearGradient id="新建渐变色板_4-10" x1="1618.29" y1="653.18" x2="2227.69" y2="653.18" xlink:href="#新建渐变色板_4"/><linearGradient id="新建渐变色板_4-11" x1="1567" y1="653.18" x2="1767.09" y2="653.18" xlink:href="#新建渐变色板_4"/><linearGradient id="新建渐变色板_5" x1="1304.37" y1="653.18" x2="1517.83" y2="653.18" gradientUnits="userSpaceOnUse"><stop offset="0" stop-color="#251e1c"/><stop offset="0" stop-color="#4b494a" stop-opacity="0.97"/><stop offset="1" stop-color="#fff" stop-opacity="0"/></linearGradient><linearGradient id="新建渐变色板_5-2" x1="843.77" y1="653.18" x2="1466.55" y2="653.18" xlink:href="#新建渐变色板_5"/><linearGradient id="新建渐变色板_5-3" x1="382.98" y1="653.18" x2="1415.46" y2="653.18" xlink:href="#新建渐变色板_5"/><linearGradient id="新建渐变色板_5-4" x1="-77.9" y1="653.18" x2="1364.44" y2="653.18" xlink:href="#新建渐变色板_5"/><linearGradient id="新建渐变色板_5-5" x1="-538.81" y1="653.18" x2="1313.47" y2="653.18" xlink:href="#新建渐变色板_5"/><linearGradient id="新建渐变色板_5-6" x1="-999.73" y1="653.18" x2="1262.51" y2="653.18" xlink:href="#新建渐变色板_5"/><linearGradient id="新建渐变色板_5-7" x1="-1460.67" y1="653.18" x2="1211.56" y2="653.18" xlink:href="#新建渐变色板_5"/><linearGradient id="新建渐变色板_5-8" x1="-1921.62" y1="653.18" x2="1160.62" y2="653.18" xlink:href="#新建渐变色板_5"/><linearGradient id="新建渐变色板_5-9" x1="-2382.57" y1="653.18" x2="1109.68" y2="653.18" xlink:href="#新建渐变色板_5"/><linearGradient id="新建渐变色板_5-10" x1="-2843.52" y1="653.18" x2="1058.75" y2="653.18" xlink:href="#新建渐变色板_5"/></defs><title>画板 1</title><polyline class="cls-1" points="2077.12 466.91 6375.84 839.46 -3304.39 839.46 1007.73 466.91"/><line class="cls-2" x1="-1960.81" y1="723.38" x2="5036.43" y2="723.38"/><line class="cls-3" x1="-1200.38" y1="657.68" x2="4278.37" y2="657.68"/><line class="cls-4" x1="-711.14" y1="615.41" x2="3790.65" y2="615.41"/><line class="cls-5" x1="-369.98" y1="585.94" x2="3450.55" y2="585.94"/><line class="cls-6" x1="-118.5" y1="564.21" x2="3199.85" y2="564.21"/><line class="cls-7" x1="74.54" y1="547.53" x2="3007.41" y2="547.53"/><line class="cls-8" x1="227.41" y1="534.33" x2="2855.02" y2="534.33"/><line class="cls-9" x1="351.45" y1="523.61" x2="2731.36" y2="523.61"/><line class="cls-10" x1="454.12" y1="514.74" x2="2629.01" y2="514.74"/><line class="cls-11" x1="540.51" y1="507.28" x2="2542.89" y2="507.28"/><line class="cls-12" x1="614.19" y1="500.91" x2="2469.43" y2="500.91"/><line class="cls-13" x1="677.79" y1="495.42" x2="2406.03" y2="495.42"/><line class="cls-14" x1="2026.19" y1="466.91" x2="5914.87" y2="839.46"/><line class="cls-15" x1="1975.27" y1="466.91" x2="5453.91" y2="839.46"/><line class="cls-16" x1="1924.35" y1="466.91" x2="4992.95" y2="839.46"/><line class="cls-17" x1="1873.42" y1="466.91" x2="4531.99" y2="839.46"/><line class="cls-18" x1="1822.5" y1="466.91" x2="4071.02" y2="839.46"/><line class="cls-19" x1="1771.58" y1="466.91" x2="3610.06" y2="839.46"/><line class="cls-20" x1="1720.66" y1="466.91" x2="3149.1" y2="839.46"/><line class="cls-21" x1="1669.73" y1="466.91" x2="2688.13" y2="839.46"/><line class="cls-22" x1="1618.81" y1="466.91" x2="2227.17" y2="839.46"/><line class="cls-23" x1="1567.89" y1="466.91" x2="1766.21" y2="839.46"/><line class="cls-24" x1="1516.96" y1="466.91" x2="1305.24" y2="839.46"/><line class="cls-25" x1="1466.04" y1="466.91" x2="844.28" y2="839.46"/><line class="cls-26" x1="1415.12" y1="466.91" x2="383.32" y2="839.46"/><line class="cls-27" x1="1364.19" y1="466.91" x2="-77.64" y2="839.46"/><line class="cls-28" x1="1313.27" y1="466.91" x2="-538.61" y2="839.46"/><line class="cls-29" x1="1262.35" y1="466.91" x2="-999.57" y2="839.46"/><line class="cls-30" x1="1211.42" y1="466.91" x2="-1460.53" y2="839.46"/><line class="cls-31" x1="1160.5" y1="466.91" x2="-1921.5" y2="839.46"/><line class="cls-32" x1="1109.58" y1="466.91" x2="-2382.46" y2="839.46"/><line class="cls-33" x1="1058.65" y1="466.91" x2="-2843.42" y2="839.46"/></svg>