<svg id="图层_1" data-name="图层 1" xmlns="http://www.w3.org/2000/svg" xmlns:xlink="http://www.w3.org/1999/xlink" viewBox="0 0 2920.95 841.89"><defs><style>.cls-1,.cls-10,.cls-11,.cls-12,.cls-13,.cls-14,.cls-15,.cls-16,.cls-17,.cls-18,.cls-19,.cls-2,.cls-20,.cls-21,.cls-22,.cls-23,.cls-24,.cls-25,.cls-26,.cls-27,.cls-28,.cls-29,.cls-3,.cls-30,.cls-31,.cls-32,.cls-33,.cls-4,.cls-5,.cls-6,.cls-7,.cls-8,.cls-9{fill:none;stroke-miterlimit:10;stroke-width:2px;}.cls-1{opacity:0;stroke:url(#新建渐变色板_4);}.cls-10,.cls-11,.cls-12,.cls-13,.cls-2,.cls-3,.cls-4,.cls-5,.cls-6,.cls-7,.cls-8,.cls-9{stroke:#878788;}.cls-2{opacity:0.8;}.cls-3{opacity:0.7;}.cls-4{opacity:0.6;}.cls-5{opacity:0.5;}.cls-6{opacity:0.4;}.cls-7{opacity:0.3;}.cls-8{opacity:0.2;}.cls-9{opacity:0.1;}.cls-10{opacity:0.05;}.cls-11{opacity:0.03;}.cls-12{opacity:0.02;}.cls-13{opacity:0.01;}.cls-14{stroke:url(#新建渐变色板_4-2);}.cls-15{stroke:url(#新建渐变色板_4-3);}.cls-16{stroke:url(#新建渐变色板_4-4);}.cls-17{stroke:url(#新建渐变色板_4-5);}.cls-18{stroke:url(#新建渐变色板_4-6);}.cls-19{stroke:url(#新建渐变色板_4-7);}.cls-20{stroke:url(#新建渐变色板_4-8);}.cls-21{stroke:url(#新建渐变色板_4-9);}.cls-22{stroke:url(#新建渐变色板_4-10);}.cls-23{stroke:url(#新建渐变色板_4-11);}.cls-24{stroke:url(#新建渐变色板_5);}.cls-25{stroke:url(#新建渐变色板_5-2);}.cls-26{stroke:url(#新建渐变色板_5-3);}.cls-27{stroke:url(#新建渐变色板_5-4);}.cls-28{stroke:url(#新建渐变色板_5-5);}.cls-29{stroke:url(#新建渐变色板_5-6);}.cls-30{stroke:url(#新建渐变色板_5-7);}.cls-31{stroke:url(#新建渐变色板_5-8);}.cls-32{stroke:url(#新建渐变色板_5-9);}.cls-33{stroke:url(#新建渐变色板_5-10);}</style><linearGradient id="新建渐变色板_4" x1="-3229.22" y1="1120.1" x2="6451.18" y2="1120.1" gradientTransform="translate(3071.45 1306.37) rotate(180)" gradientUnits="userSpaceOnUse"><stop offset="0" stop-color="#fff" stop-opacity="0"/><stop offset="1" stop-color="#251e1c"/><stop offset="1" stop-color="#4b494a" stop-opacity="0.97"/></linearGradient><linearGradient id="新建渐变色板_4-2" x1="2101.35" y1="1120.1" x2="5990.22" y2="1120.1" xlink:href="#新建渐变色板_4"/><linearGradient id="新建渐变色板_4-3" x1="2050.42" y1="1120.1" x2="5529.27" y2="1120.1" xlink:href="#新建渐变色板_4"/><linearGradient id="新建渐变色板_4-4" x1="1999.48" y1="1120.1" x2="5068.32" y2="1120.1" xlink:href="#新建渐变色板_4"/><linearGradient id="新建渐变色板_4-5" x1="1948.54" y1="1120.1" x2="4607.38" y2="1120.1" xlink:href="#新建渐变色板_4"/><linearGradient id="新建渐变色板_4-6" x1="1897.59" y1="1120.1" x2="4146.44" y2="1120.1" xlink:href="#新建渐变色板_4"/><linearGradient id="新建渐变色板_4-7" x1="1846.63" y1="1120.1" x2="3685.51" y2="1120.1" xlink:href="#新建渐变色板_4"/><linearGradient id="新建渐变色板_4-8" x1="1795.65" y1="1120.1" x2="3224.6" y2="1120.1" xlink:href="#新建渐变色板_4"/><linearGradient id="新建渐变色板_4-9" x1="1744.64" y1="1120.1" x2="2763.73" y2="1120.1" xlink:href="#新建渐变色板_4"/><linearGradient id="新建渐变色板_4-10" x1="1693.54" y1="1120.1" x2="2302.94" y2="1120.1" xlink:href="#新建渐变色板_4"/><linearGradient id="新建渐变色板_4-11" x1="1642.25" y1="1120.1" x2="1842.34" y2="1120.1" xlink:href="#新建渐变色板_4"/><linearGradient id="新建渐变色板_5" x1="1379.63" y1="1120.1" x2="1593.08" y2="1120.1" gradientTransform="translate(3071.45 1306.37) rotate(180)" gradientUnits="userSpaceOnUse"><stop offset="0" stop-color="#251e1c"/><stop offset="0" stop-color="#4b494a" stop-opacity="0.97"/><stop offset="1" stop-color="#fff" stop-opacity="0"/></linearGradient><linearGradient id="新建渐变色板_5-2" x1="919.02" y1="1120.1" x2="1541.8" y2="1120.1" xlink:href="#新建渐变色板_5"/><linearGradient id="新建渐变色板_5-3" x1="458.23" y1="1120.1" x2="1490.71" y2="1120.1" xlink:href="#新建渐变色板_5"/><linearGradient id="新建渐变色板_5-4" x1="-2.64" y1="1120.1" x2="1439.69" y2="1120.1" xlink:href="#新建渐变色板_5"/><linearGradient id="新建渐变色板_5-5" x1="-463.55" y1="1120.1" x2="1388.72" y2="1120.1" xlink:href="#新建渐变色板_5"/><linearGradient id="新建渐变色板_5-6" x1="-924.48" y1="1120.1" x2="1337.76" y2="1120.1" xlink:href="#新建渐变色板_5"/><linearGradient id="新建渐变色板_5-7" x1="-1385.42" y1="1120.1" x2="1286.81" y2="1120.1" xlink:href="#新建渐变色板_5"/><linearGradient id="新建渐变色板_5-8" x1="-1846.37" y1="1120.1" x2="1235.87" y2="1120.1" xlink:href="#新建渐变色板_5"/><linearGradient id="新建渐变色板_5-9" x1="-2307.31" y1="1120.1" x2="1184.93" y2="1120.1" xlink:href="#新建渐变色板_5"/><linearGradient id="新建渐变色板_5-10" x1="-2768.27" y1="1120.1" x2="1134" y2="1120.1" xlink:href="#新建渐变色板_5"/></defs><title>画板 1</title><polyline class="cls-1" points="919.08 372.54 -3379.64 0 6300.59 0 1988.47 372.54"/><line class="cls-2" x1="4957.01" y1="116.08" x2="-2040.23" y2="116.08"/><line class="cls-3" x1="4196.58" y1="181.77" x2="-1282.17" y2="181.77"/><line class="cls-4" x1="3707.34" y1="224.04" x2="-794.45" y2="224.04"/><line class="cls-5" x1="3366.18" y1="253.52" x2="-454.35" y2="253.52"/><line class="cls-6" x1="3114.7" y1="275.24" x2="-203.65" y2="275.24"/><line class="cls-7" x1="2921.66" y1="291.92" x2="-11.21" y2="291.92"/><line class="cls-8" x1="2768.79" y1="305.13" x2="141.18" y2="305.13"/><line class="cls-9" x1="2644.75" y1="315.84" x2="264.84" y2="315.84"/><line class="cls-10" x1="2542.08" y1="324.71" x2="367.19" y2="324.71"/><line class="cls-11" x1="2455.69" y1="332.18" x2="453.31" y2="332.18"/><line class="cls-12" x1="2382.01" y1="338.54" x2="526.77" y2="338.54"/><line class="cls-13" x1="2318.41" y1="344.04" x2="590.17" y2="344.04"/><line class="cls-14" x1="970.01" y1="372.54" x2="-2918.67"/><line class="cls-15" x1="1020.93" y1="372.54" x2="-2457.71"/><line class="cls-16" x1="1071.85" y1="372.54" x2="-1996.75"/><line class="cls-17" x1="1122.77" y1="372.54" x2="-1535.79"/><line class="cls-18" x1="1173.7" y1="372.54" x2="-1074.82"/><line class="cls-19" x1="1224.62" y1="372.54" x2="-613.86"/><line class="cls-20" x1="1275.54" y1="372.54" x2="-152.9"/><line class="cls-21" x1="1326.47" y1="372.54" x2="308.07"/><line class="cls-22" x1="1377.39" y1="372.54" x2="769.03"/><line class="cls-23" x1="1428.31" y1="372.54" x2="1229.99"/><line class="cls-24" x1="1479.24" y1="372.54" x2="1690.96"/><line class="cls-25" x1="1530.16" y1="372.54" x2="2151.92"/><line class="cls-26" x1="1581.08" y1="372.54" x2="2612.88"/><line class="cls-27" x1="1632.01" y1="372.54" x2="3073.84"/><line class="cls-28" x1="1682.93" y1="372.54" x2="3534.81"/><line class="cls-29" x1="1733.85" y1="372.54" x2="3995.77"/><line class="cls-30" x1="1784.78" y1="372.54" x2="4456.73"/><line class="cls-31" x1="1835.7" y1="372.54" x2="4917.7"/><line class="cls-32" x1="1886.62" y1="372.54" x2="5378.66"/><line class="cls-33" x1="1937.55" y1="372.54" x2="5839.62"/></svg>